<svg version="1.1" id="Layer_1" xmlns="http://www.w3.org/2000/svg" x="0" y="0" viewBox="0 0 2000 1704.2" xml:space="preserve"><style type="text/css">.st0{fill:#bebebe}</style><path class="st0" d="M1193.6 1669.2c-10.6 0-21.2-3.9-29.6-11.8-17.3-16.3-18.1-43.6-1.7-60.9l704.3-745.7-704.3-745.7c-16.4-17.3-15.6-44.5 1.7-60.9 17.3-16.3 44.6-15.6 60.9 1.7l732.2 775.3c15.7 16.6 15.7 42.5 0 59.1l-732.2 775.3c-8.4 9.1-19.8 13.6-31.3 13.6z"/><path class="st0" d="M1925.8 893.9H73.8c-23.8 0-43.1-19.3-43.1-43.1s19.3-43.1 43.1-43.1h1852.1c23.8 0 43.1 19.3 43.1 43.1-.1 23.8-19.4 43.1-43.2 43.1z"/></svg>