
<svg version="1.1" id="Layer_1" xmlns="http://www.w3.org/2000/svg" xmlns:xlink="http://www.w3.org/1999/xlink" width="62" height="67" x="0px" y="0px"
	 viewBox="0 0 612 608.97" style="enable-background:new 0 0 612 608.97;" xml:space="preserve">
<g>
	<circle style="fill:#FFFFFF;" cx="308.541" cy="303.694" r="300.396"/>
	<g>
		<path style="fill:#010101;" d="M305.42,609.253c-167.261,0-303.339-136.077-303.339-303.339S138.158,2.576,305.42,2.576
			s303.339,136.077,303.339,303.339S472.681,609.253,305.42,609.253z M305.42,11.161c-162.528,0-294.754,132.226-294.754,294.754
			S142.892,600.668,305.42,600.668s294.754-132.226,294.754-294.754S467.948,11.161,305.42,11.161z"/>
	</g>
	<g>
		<path style="fill:#010101;" d="M169.485,414.301c-2.208,0-4.084-1.692-4.272-3.932c-0.31-3.682-2.695-36.303,8.874-47.87
			c9.794-9.795,68.253-50.458,79.794-58.455l-0.64-48.649c-6.304-2.086-17.267-9.535-18.996-35.764
			c-0.057-0.857-0.146-1.906-0.249-3.123c-1.126-13.245-4.115-48.425,16.142-69.987c11.562-12.306,28.744-18.301,51.086-17.791
			c2.37,0.053,4.249,2.018,4.195,4.388c-0.053,2.371-2.037,4.313-4.388,4.195c-19.808-0.443-34.813,4.632-44.636,15.087
			c-17.636,18.771-14.98,50.032-13.845,63.38c0.109,1.281,0.203,2.385,0.262,3.286c1.45,21.996,9.711,27.046,13.196,28.196
			c3.43,1.132,5.768,4.354,5.816,8.021l0.701,53.221l-1.883,1.299c-24.304,16.791-72.404,50.683-80.485,58.765
			c-6.618,6.618-7.432,28.709-6.39,41.079c0.199,2.363-1.555,4.439-3.917,4.638C169.727,414.297,169.605,414.301,169.485,414.301z"
			/>
	</g>
	<g>
		<path style="fill:#010101;" d="M431.698,414.301c-0.12,0-0.242-0.006-0.364-0.015c-2.361-0.198-4.116-2.275-3.918-4.636
			c1.035-12.377,0.215-34.476-6.389-41.081c-8.083-8.082-56.182-41.974-80.486-58.765l-1.883-1.299l0.701-53.221
			c0.048-3.667,2.386-6.889,5.818-8.021c3.483-1.15,11.745-6.201,13.195-28.196c0.059-0.901,0.153-2.005,0.262-3.286
			c1.135-13.348,3.791-44.609-13.845-63.38c-9.822-10.455-24.848-15.558-44.636-15.087c-2.35,0.106-4.334-1.823-4.388-4.195
			c-0.054-2.37,1.825-4.334,4.195-4.388c22.321-0.502,39.524,5.483,51.086,17.791c20.257,21.562,17.268,56.742,16.142,69.987
			c-0.103,1.217-0.193,2.266-0.249,3.123c-1.729,26.227-12.691,33.678-19.072,35.784l-0.567,48.626
			c11.529,7.99,70.001,48.661,79.797,58.458c11.568,11.567,9.183,44.188,8.873,47.87
			C435.782,412.609,433.906,414.301,431.698,414.301z"/>
	</g>
	<g>
		<g>
			<path style="fill:#010101;" d="M298.903,482.461l-18.301-25.878l4.093-111.589l10.815-10.48l-14.353-14.353
				c0,0-0.342-0.786,0.421-1.571c0.763-0.786,1.602-0.452,1.602-0.452l15.661,15.661l16.875-15.58c0,0,1.329-0.381,2.044,0.454
				s-0.102,1.648-0.102,1.648l-15.185,14.021l11.445,10.321l0.024,0.601l4.552,111.041L298.903,482.461z M283.497,455.723
				l15.472,21.876l16.625-22.195l-4.487-109.423l-12.077-10.893l-11.519,11.162L283.497,455.723z"/>
			<path style="fill:#010101;" d="M298.886,483.677l-19.008-26.879l0.009-0.242l4.103-111.875l10.499-10.175l-13.989-14.058
				c-0.198-0.456-0.303-1.464,0.564-2.357c0.866-0.89,1.902-0.806,2.38-0.618l0.241,0.159l15.175,15.175l16.658-15.275
				c0.66-0.19,1.985-0.259,2.786,0.676c0.842,0.982,0.377,2.104-0.141,2.62l-14.628,13.508l11.087,9.996l0.036,0.903l4.563,111.294
				L298.886,483.677z M281.326,456.368l17.594,24.878l18.851-25.167l-4.554-111.087l-11.804-10.645l15.76-14.552
				c0.131-0.14,0.27-0.393,0.045-0.657c-0.301-0.349-0.888-0.305-1.161-0.26l-16.766,15.479l12.52,11.293l0.013,0.3l4.497,109.678
				l-17.367,23.186l-16.179-22.877l0.009-0.242l4.025-109.76l11.762-11.398l-15.757-15.756c-0.151-0.01-0.432,0.008-0.722,0.306
				c-0.286,0.295-0.31,0.558-0.293,0.703l14.733,14.732l-11.131,10.784L281.326,456.368z M284.221,455.507l14.765,20.876
				l15.883-21.204l-4.464-108.868l-11.357-10.244l-10.833,10.495L284.221,455.507z"/>
		</g>
	</g>
	<g>
		<polygon style="fill:#536DB4;" points="298.265,334.174 285.746,345.978 282.288,455.676 298.742,479.881 317.463,455.199 
			312.216,344.666 		"/>
	</g>
	<g>
		<path style="fill:#010101;" d="M290.195,340.504c-0.687,0.839-0.883,1.901-0.544,2.888c0.787,2.288,2.361,6.333,3.936,7.289
			c1.507,0.915,6.587,0.68,9.711,0.432c1.529-0.121,2.825-1.013,3.302-2.279l2.108-5.598c0.425-1.128,0.123-2.367-0.791-3.25
			l-5.011-4.843c-0.819-0.792-2.025-1.195-3.245-1.086l-2.79,0.25c-1.096,0.098-2.09,0.601-2.729,1.38L290.195,340.504z"/>
	</g>
	<g>
		<path style="fill:#010101;" d="M298.903,482.461l-18.301-25.877l4.093-111.592l10.816-10.478l-14.354-14.353l2.023-2.023
			l15.662,15.661l16.875-15.581l1.941,2.102l-15.183,14.021l11.445,10.323l4.576,111.642L298.903,482.461z M283.497,455.721
			l15.473,21.878l16.625-22.193l-4.485-109.423l-12.078-10.895l-11.52,11.16L283.497,455.721z"/>
	</g>
</g>
</svg>
