
<svg version="1.1" id="Layer_1" xmlns="http://www.w3.org/2000/svg" xmlns:xlink="http://www.w3.org/1999/xlink" x="0px" y="0px"
	 viewBox="0 0 612 608.97" style="enable-background:new 0 0 612 608.97;" xml:space="preserve">
<circle style="fill:#FFFFFF;" cx="305.982" cy="306.418" r="299.847"/>
<g>
	<g>
		<path style="fill:#010101;" d="M306.122,611.755c-168.662,0-305.878-137.216-305.878-305.878S137.461,0,306.122,0
			S612,137.216,612,305.878S474.784,611.755,306.122,611.755z M306.122,8.657C142.234,8.657,8.902,141.989,8.902,305.878
			s133.332,297.221,297.221,297.221s297.221-133.332,297.221-297.221S470.011,8.657,306.122,8.657z"/>
	</g>
	<g>
		<polygon style="fill:#536DB4;" points="310.674,302.27 479.724,302.03 481.407,433.327 455.436,453.526 329.671,450.64 
			309.231,431.884 		"/>
	</g>
	<g>
		<g>
			<path style="fill:#010101;" d="M354.681,327.039c-0.023,0-0.044,0-0.066-0.001c-2.391-0.036-4.299-2.003-4.264-4.393
				c0,0,0.17-11.229,0.518-25.168c0.492-19.622,5.599-34.186,15.181-43.285c7.583-7.201,17.748-10.677,30.279-10.353
				c30.925,0.821,41.711,28.599,41.492,54.321c-0.107,12.632-0.001,24.066,0,24.18c0.023,2.39-1.897,4.347-4.288,4.369
				c-2.263,0.073-4.345-1.896-4.369-4.288c-0.001-0.115-0.107-11.622,0-24.335c0.089-10.488-2.033-44.77-33.066-45.594
				c-10.081-0.273-18.228,2.414-24.087,7.977c-9.783,9.29-12.191,25.37-12.488,37.224c-0.348,13.891-0.516,25.082-0.516,25.082
				C358.971,325.144,357.041,327.039,354.681,327.039z"/>
		</g>
	</g>
	<g>
		<g>
			<path style="fill:#010101;" d="M200.568,250.239c-2.378,0-4.313-1.92-4.328-4.301c-0.001-0.141-0.086-14.328,0.362-31.79
				c0.472-18.421,4.195-33.364,11.063-44.417c9.64-15.51,25.073-23.12,45.963-22.557c39.069,1.014,52.692,35.551,52.415,67.533
				c-0.139,15.982-0.001,30.448,0,30.592c0.023,2.39-1.897,4.347-4.286,4.371c-2.314-0.079-4.348-1.894-4.371-4.286
				c-0.001-0.145-0.139-14.687,0-30.751c0.118-13.524-2.707-57.732-43.983-58.804c-17.789-0.468-30.372,5.58-38.385,18.473
				c-6.046,9.727-9.33,23.208-9.762,40.068c-0.444,17.317-0.361,31.374-0.359,31.514c0.016,2.39-1.911,4.34-4.3,4.356
				C200.587,250.239,200.577,250.239,200.568,250.239z"/>
		</g>
	</g>
	<g>
		<path style="fill:#010101;" d="M459.201,455.57H331.554c-2.702,0-5.306-0.814-7.527-2.354l-12.432-8.615
			c-3.807-2.638-6.087-6.971-6.1-11.592c-0.116-40.817-0.286-111.834-0.131-128.841c0.039-4.36,3.628-7.908,7.999-7.908H476.24
			c4.41,0,7.999,3.588,7.999,7.999v128.396c0,3.755-1.787,7.35-4.781,9.616l-15.43,11.679
			C462.644,454.994,460.931,455.57,459.201,455.57z M314.016,304.916c-0.149,18.829,0.045,95.623,0.137,128.069
			c0.004,1.792,0.892,3.473,2.373,4.5l12.433,8.616c0.767,0.532,1.664,0.812,2.595,0.812H458.98l15.254-11.546
			c0.844-0.639,1.348-1.653,1.348-2.713V304.916H314.016z"/>
	</g>
	<g>
		<path style="fill:#010101;" d="M280.374,463.866H179.859c-4.102,0-7.959-1.598-10.862-4.499l-21.19-21.191
			c-2.903-2.9-4.5-6.758-4.5-10.862V222.286c0-14.106,11.476-25.582,25.582-25.582h165.78c9.893,0,18.831,6.239,22.243,15.526
			l3.996,10.875l-8.127,2.986l-3.996-10.876c-2.164-5.894-7.837-9.854-14.115-9.854h-165.78c-9.332,0-16.925,7.592-16.925,16.925
			v205.027c0,1.791,0.697,3.475,1.964,4.741l21.19,21.191c1.267,1.266,2.95,1.963,4.741,1.963h100.515V463.866z"/>
	</g>
</g>
</svg>
