
<svg version="1.1" id="Layer_1" xmlns="http://www.w3.org/2000/svg" xmlns:xlink="http://www.w3.org/1999/xlink" x="0px" y="0px"
	 viewBox="0 0 612 608.97" style="enable-background:new 0 0 612 608.97;" xml:space="preserve">
<circle style="fill:#FFFFFF;" cx="306.253" cy="304.264" r="303.994"/>
<g>
	<g>
		<path style="fill:#536DB4;" d="M110.957,416.911h149.765c0,0,2.488-14.18-16.419-25.127s-33.961-24.166-33.961-24.166l1.371-29.82
			c0,0,6.966-6.468,9.205-15.424c2.239-8.956-0.498-38.561-14.18-48.015c-13.683-9.454-37.317-4.727-43.536,2.488
			c-6.219,7.215-16.668,36.322-10.449,46.273s8.459,15.673,9.205,18.41c0.746,2.737-0.245,26.088-0.245,26.088
			s-41.301,30.634-44.536,32.873S110.46,413.18,110.957,416.911z"/>
	</g>
	<g>
		<path style="fill:#656565;" d="M350.532,416.911h149.766c0,0,2.488-14.18-16.419-25.127
			c-18.907-10.946-33.961-24.166-33.961-24.166l1.371-29.82c0,0,6.966-6.468,9.205-15.424c2.239-8.956-0.498-38.561-14.18-48.015
			s-37.317-4.727-43.536,2.488c-6.22,7.215-16.668,36.322-10.449,46.273c6.219,9.951,8.458,15.673,9.205,18.41
			c0.746,2.737-0.245,26.088-0.245,26.088s-41.302,30.634-44.536,32.873S350.035,413.18,350.532,416.911z"/>
	</g>
	<g>
		<g>
			<path style="fill:#010101;" d="M110.823,430.108c-1.536,0-2.841-1.176-2.972-2.734c-0.179-2.137-1.561-21.07,5.242-27.873
				c5.586-5.587,38.48-28.486,45.614-33.431l-0.36-27.266c-3.826-1.424-9.92-6.025-10.899-20.848
				c-0.182-2.762-1.383-27.41,12.328-42.055c6.612-7.064,15.549-10.646,26.559-10.646c1.649,0,2.985,1.337,2.985,2.985
				c0,1.649-1.337,2.985-2.985,2.985c-9.293,0-16.762,2.946-22.201,8.756c-11.991,12.807-10.892,35.082-10.727,37.58
				c0.81,12.3,5.313,15.086,7.211,15.712c2.181,0.719,3.666,2.765,3.695,5.092l0.405,30.805l-1.309,0.905
				c-13.928,9.622-41.486,29.038-46.095,33.647c-3.662,3.662-4.098,16.144-3.513,23.151c0.137,1.642-1.083,3.086-2.726,3.224
				C110.99,430.105,110.906,430.108,110.823,430.108z"/>
		</g>
		<g>
			<path style="fill:#010101;" d="M261.231,430.108c-0.083,0-0.168-0.004-0.252-0.011c-1.643-0.138-2.863-1.582-2.726-3.224
				c0.586-7.007,0.15-19.488-3.512-23.15c-4.609-4.609-32.167-24.025-46.095-33.647l-1.309-0.905l0.405-30.807
				c0.029-2.325,1.515-4.372,3.697-5.09c1.896-0.626,6.399-3.412,7.21-15.712c0.388-5.879,0.81-25.962-10.026-37.538
				c-5.466-5.838-13.17-8.798-22.902-8.798c-1.649,0-2.985-1.337-2.985-2.985c0-1.649,1.337-2.985,2.985-2.985
				c11.449,0,20.621,3.596,27.26,10.688c12.138,12.965,12.175,33.7,11.627,42.012c-0.98,14.824-7.074,19.425-10.899,20.848
				l-0.36,27.266c7.134,4.945,40.028,27.845,45.614,33.431c6.803,6.802,5.42,25.736,5.24,27.873
				C264.072,428.931,262.767,430.108,261.231,430.108z"/>
		</g>
	</g>
	<g>
		<g>
			<path style="fill:#010101;" d="M351.144,430.108c-1.536,0-2.841-1.176-2.972-2.734c-0.179-2.137-1.561-21.07,5.242-27.873
				c5.586-5.587,38.48-28.486,45.614-33.431l-0.36-27.266c-3.826-1.424-9.92-6.025-10.899-20.848
				c-0.182-2.762-1.383-27.41,12.328-42.055c6.612-7.064,15.549-10.646,26.559-10.646c1.649,0,2.985,1.337,2.985,2.985
				c0,1.649-1.337,2.985-2.985,2.985c-9.293,0-16.762,2.946-22.201,8.756c-11.991,12.807-10.892,35.082-10.727,37.58
				c0.81,12.3,5.313,15.086,7.211,15.712c2.181,0.719,3.666,2.765,3.695,5.092l0.405,30.805l-1.309,0.905
				c-13.928,9.622-41.486,29.038-46.095,33.647c-3.662,3.662-4.098,16.144-3.513,23.151c0.137,1.642-1.083,3.086-2.726,3.224
				C351.312,430.105,351.227,430.108,351.144,430.108z"/>
		</g>
		<g>
			<path style="fill:#010101;" d="M501.552,430.108c-0.083,0-0.168-0.004-0.252-0.011c-1.643-0.138-2.863-1.582-2.726-3.224
				c0.586-7.007,0.15-19.488-3.512-23.15c-4.609-4.609-32.167-24.025-46.095-33.647l-1.309-0.905l0.405-30.807
				c0.029-2.325,1.515-4.372,3.697-5.09c1.896-0.626,6.399-3.412,7.21-15.712c0.388-5.879,0.81-25.962-10.026-37.538
				c-5.466-5.838-13.17-8.798-22.902-8.798c-1.649,0-2.985-1.337-2.985-2.985c0-1.649,1.337-2.985,2.985-2.985
				c11.449,0,20.621,3.596,27.26,10.688c12.138,12.965,12.175,33.7,11.627,42.012c-0.98,14.824-7.074,19.425-10.899,20.848
				l-0.36,27.266c7.134,4.945,40.028,27.845,45.614,33.431c6.803,6.802,5.42,25.736,5.24,27.873
				C504.393,428.931,503.088,430.108,501.552,430.108z"/>
		</g>
	</g>
	<g>
		<g>
			<path style="fill:#010101;" d="M227.75,244.021c-1.536,0-2.841-1.177-2.972-2.735c-0.179-2.137-1.561-21.071,5.242-27.873
				c5.587-5.587,38.482-28.488,45.613-33.431l-0.359-27.265c-3.825-1.422-9.921-6.021-10.899-20.849
				c-0.182-2.762-1.383-27.41,12.326-42.054c6.614-7.064,15.549-10.646,26.561-10.646c1.649,0,2.985,1.337,2.985,2.985
				c0,1.649-1.337,2.985-2.985,2.985c-9.293,0-16.762,2.946-22.202,8.756c-11.99,12.807-10.89,35.082-10.726,37.58
				c0.81,12.301,5.312,15.085,7.21,15.711c2.178,0.719,3.663,2.763,3.697,5.087l0.404,30.811l-1.309,0.904
				c-13.927,9.622-41.485,29.037-46.094,33.646c-3.662,3.662-4.098,16.144-3.513,23.152c0.137,1.643-1.083,3.086-2.726,3.224
				C227.918,244.017,227.833,244.021,227.75,244.021z"/>
		</g>
		<g>
			<path style="fill:#010101;" d="M378.158,244.021c-0.083,0-0.168-0.004-0.252-0.011c-1.643-0.138-2.863-1.581-2.726-3.224
				c0.585-7.008,0.149-19.489-3.513-23.152c-4.609-4.609-32.167-24.024-46.095-33.646l-1.309-0.904l0.405-30.808
				c0.029-2.324,1.515-4.369,3.695-5.09c1.899-0.627,6.401-3.411,7.211-15.711c0.388-5.88,0.812-25.964-10.026-37.539
				c-5.465-5.838-13.17-8.798-22.902-8.798c-1.649,0-2.985-1.337-2.985-2.985c0-1.649,1.337-2.985,2.985-2.985
				c11.449,0,20.621,3.596,27.26,10.688c12.138,12.965,12.175,33.699,11.627,42.012c-0.978,14.825-7.074,19.425-10.899,20.848
				l-0.36,27.266c7.134,4.945,40.028,27.844,45.614,33.431c6.803,6.802,5.421,25.736,5.242,27.873
				C380.999,242.844,379.694,244.021,378.158,244.021z"/>
		</g>
	</g>
	<g>
		<path style="fill:#010101;" d="M255.75,340.537c-1.294,0-2.554-0.676-3.243-1.881c-1.022-1.789-0.401-4.069,1.389-5.091
			l46.881-26.789v-52.069c0-2.061,1.671-3.732,3.732-3.732s3.732,1.671,3.732,3.732v56.4l-50.642,28.937
			C257.013,340.378,256.378,340.537,255.75,340.537z"/>
	</g>
	<g>
		<path style="fill:#010101;" d="M346.797,340.537c-0.706,0-1.418-0.2-2.05-0.617l-42.292-27.862
			c-1.722-1.134-2.198-3.449-1.064-5.17c1.134-1.722,3.453-2.195,5.169-1.063l42.292,27.863c1.722,1.134,2.198,3.449,1.064,5.17
			C349.2,339.945,348.01,340.537,346.797,340.537z"/>
	</g>
	<g>
		<path style="fill:#010101;" d="M306.747,608.97C138.43,608.97,1.494,472.034,1.494,303.717S138.43-1.536,306.747-1.536
			S612,135.4,612,303.717S475.064,608.97,306.747,608.97z M306.747,7.42C143.369,7.42,10.45,140.338,10.45,303.717
			s132.918,296.297,296.297,296.297s296.297-132.918,296.297-296.297S470.125,7.42,306.747,7.42z"/>
	</g>
</g>
</svg>
