<?xml version="1.0" encoding="iso-8859-1"?>
<!-- Generator: Adobe Illustrator 19.1.1, SVG Export Plug-In . SVG Version: 6.00 Build 0)  -->
<svg version="1.1" id="Layer_1" xmlns="http://www.w3.org/2000/svg" xmlns:xlink="http://www.w3.org/1999/xlink" x="0px" y="0px"
	 viewBox="0 0 612 609" style="enable-background:new 0 0 612 609;" xml:space="preserve">
<path style="fill:#F5F6FB;" d="M611.445,382.58c-8.215,102.32-149.043,233.035-305.37,227.234
	C134.979,603.465,18.178,496.364,2.263,326.337C-11.901,175.023,85.452,41.418,234.614,7.463
	C381.802-26.042,562.199,63.082,612,197.742c-62.225-19.293-123.382-30.461-189.676-38.13c17.124-13.941,38.203-5.908,48.729-21.626
	c-66.75-67.046-168.134-85.05-253.521-45.004C135.35,131.525,85.156,223.804,93.784,320.486
	c15.072,168.889,156.291,256.463,317.119,196.477c59.856-22.325,108.978-61.377,157.385-101.606
	C582.035,403.932,592.812,388.273,611.445,382.58z"/>
</svg>
