<svg version="1.1" id="Layer_1" xmlns="http://www.w3.org/2000/svg" xmlns:xlink="http://www.w3.org/1999/xlink" x="0px" y="0px"
	 viewBox="0 0 124.25 124.25" style="enable-background:new 0 0 124.25 124.25;" xml:space="preserve">
<g>
	<circle style="fill:#9e9e9e;" cx="62.75" cy="62.75" r="61.5"/>
	<path style="fill:#FFFFFF;" d="M76.92,47.969c1.429-1.746,3.893-0.442,4.917-2.329c-7.032-7.274-18-9.28-27.261-4.98
		c-9.165,4.255-14.622,14.605-13.406,25.425c1.897,16.874,15.719,25.937,32.071,21c4.948-1.494,9.408-3.952,13.445-7.166
		c3.333-2.654,6.629-5.354,10.125-8.182c-2.178,13.656-17.179,24.846-32.489,24.516c-17.479-0.377-30.439-11.258-32.486-27.275
		c-2.289-17.915,6.615-32.444,22.572-36.833c16.644-4.578,35.638,4.012,42.625,19.79C90.235,50.032,83.749,48.62,76.92,47.969z"/>
</g>
</svg>
