<svg class="Rotate-icon" version="1.1" id="Layer_1" xmlns="http://www.w3.org/2000/svg" xmlns:xlink="http://www.w3.org/1999/xlink" x="0px" y="0px" viewBox="0 0 127 134.1" style="transform: matrix(1, 0, 0, 1, 0, 0);" xml:space="preserve">
<style type="text/css">
	.rotate0{fill:none;stroke-width:3;stroke-linecap:round;stroke-linejoin:round;stroke-miterlimit:10;}
	.rotate1{fill:none;stroke-width:3;stroke-linecap:round;stroke-miterlimit:10;}
	.rotate2{fill: #fff; stroke-miterlimit:10;}


@-webkit-keyframes rotateIn22 {
  from {
    -webkit-transform-origin: center;
    transform-origin: center;
   -webkit-transform: none;
    transform: none;
    opacity: 0; }
  to {
    -webkit-transform-origin: center;
    transform-origin: center;
   
      -webkit-transform: rotate3d(0, 0, 1, -90deg);
    transform: rotate3d(0, 0, 1, -90deg);
    opacity: 1; } }
.rotateIn22.animated {
    -webkit-animation-duration: 1s;
    animation-duration: 1s;
    animation-delay: 1s;
    -webkit-animation-fill-mode: both;
    animation-fill-mode: both;
}
.rotateIn22 {
  -webkit-animation-name: rotateIn22;
  animation-name: rotateIn22; }
</style>
<g data-svg-origin="63.45000076293945 67.00000381469727"  class="rotateIn22 animated infinite" >
	<path class="rotate0" d="M65.5,45.4h31.3c4.3,0,7.8,3.5,7.8,7.8v27.6c0,4.3-3.5,7.8-7.8,7.8H30.1c-4.3,0-7.8-3.5-7.8-7.8V53.2
		c0-4.3,3.5-7.8,7.8-7.8h12.4H65.5z"></path>
	<line class="rotate1" x1="27.9" y1="70.2" x2="27.9" y2="63.9"></line>
</g>
<path class="rotate0" d="M125.5,67c0-34.2-27.8-62-62-62"></path>
<path class="rotate0" d="M1.5,67c0,34.2,27.8,62,62,62"></path>
<polygon class="rotate2" points="63.5,1.2 59.7,5 63.5,8.9 "></polygon>
<polygon class="rotate2" points="63.5,132.9 67.3,129 63.5,125.2 "></polygon>
</svg>